<?xml version="1.0" standalone="no"?>
<!DOCTYPE svg PUBLIC "-//W3C//DTD SVG 20010904//EN"
 "http://www.w3.org/TR/2001/REC-SVG-20010904/DTD/svg10.dtd">
<svg version="1.0" xmlns="http://www.w3.org/2000/svg"
 width="428.000000pt" height="419.000000pt" viewBox="0 0 428.000000 419.000000"
 preserveAspectRatio="xMidYMid meet">

<g transform="translate(0.000000,419.000000) scale(0.100000,-0.100000)"
fill="#000000" stroke="none">
<path d="M1887 3599 c-811 -213 -1310 -349 -1345 -367 -71 -35 -158 -114 -200
-185 -65 -108 -63 -47 -60 -1334 l3 -1168 37 -78 c50 -103 122 -175 225 -225
l78 -37 1525 0 1525 0 78 37 c51 25 96 56 133 92 36 37 67 82 92 133 l37 78 0
1136 0 1135 -38 76 c-50 101 -123 175 -223 225 l-78 38 -1100 5 -1101 5 165
43 c91 24 478 126 860 227 382 101 707 187 723 190 l27 7 0 -156 0 -156 156 0
156 0 -4 188 c-4 180 -5 189 -32 250 -33 72 -85 123 -160 158 -103 48 -60 57
-1479 -317z m1742 -767 c19 -9 44 -30 55 -45 21 -28 21 -32 21 -1107 0 -1075
0 -1079 -21 -1107 -11 -15 -36 -36 -55 -45 -32 -17 -123 -18 -1479 -18 -1356
0 -1447 1 -1479 18 -19 9 -44 30 -55 45 -21 28 -21 32 -21 1107 0 1075 0 1079
21 1107 11 15 36 36 55 45 32 17 123 18 1479 18 1356 0 1447 -1 1479 -18z"/>
<path d="M3059 1885 c-49 -25 -91 -73 -115 -130 -43 -104 21 -244 133 -292 46
-19 140 -16 189 6 49 23 107 88 122 140 35 115 -24 241 -135 288 -52 21 -141
16 -194 -12z"/>
</g>
</svg>
